<svg xmlns="http://www.w3.org/2000/svg" viewBox="0 0 24 24" fill="none">
    <!-- Base -->
    <rect x="5" y="19" width="14" height="2" rx="1" fill="#2c3e50"/>
    <rect x="7" y="17" width="10" height="1" rx="0.5" fill="#34495e"/>
    
    <!-- Corpo -->
    <path d="M9 17V13C9 12.4477 9.44772 12 10 12H14C14.5523 12 15 12.4477 15 13V17H9Z" fill="#a9cce3"/>
    
    <!-- Cabeça -->
    <circle cx="12" cy="10" r="2" fill="#f5d7b2"/>
    
    <!-- Arcos do Medidor -->
    <path d="M4 12 A8 8 0 0 1 8 5.07" stroke="#e74c3c" stroke-width="2.5" stroke-linecap="round"/>
    <path d="M8 5.07 A8 8 0 0 1 12 4" stroke="#f1c40f" stroke-width="2.5" stroke-linecap="round"/>
    <path d="M12 4 A8 8 0 0 1 16 5.07" stroke="#f39c12" stroke-width="2.5" stroke-linecap="round"/>
    <path d="M16 5.07 A8 8 0 0 1 20 12" stroke="#27ae60" stroke-width="2.5" stroke-linecap="round"/>
    
    <!-- Ponteiro -->
    <path d="M12 10 L17 6.5" stroke="#2980b9" stroke-width="1.5" stroke-linecap="round"/>
</svg>